<svg width="22" height="22" viewBox="0 0 22 22" fill="none" xmlns="http://www.w3.org/2000/svg">
<path d="M10.9998 0.799805C5.37558 0.799805 0.799805 5.37558 0.799805 10.9998C0.799805 16.624 5.37558 21.1998 10.9998 21.1998C16.624 21.1998 21.1998 16.624 21.1998 10.9998C21.1998 5.37558 16.624 0.799805 10.9998 0.799805ZM8.53709 6.52848C9.15841 5.86989 10.0328 5.5075 10.9998 5.5075C11.9668 5.5075 12.8334 5.87234 13.4571 6.53436C14.0892 7.20521 14.3967 8.10654 14.3241 9.07554C14.179 10.9998 12.6882 12.569 10.9998 12.569C9.31141 12.569 7.8177 10.9998 7.67549 9.07505C7.6034 8.0982 7.91038 7.19393 8.53709 6.52848ZM10.9998 19.6306C9.84763 19.6313 8.70703 19.4007 7.64565 18.9524C6.58427 18.5041 5.62372 17.8472 4.82096 17.0207C5.28072 16.3651 5.86653 15.8076 6.54417 15.3809C7.79416 14.5796 9.37614 14.1383 10.9998 14.1383C12.6235 14.1383 14.2054 14.5796 15.454 15.3809C16.1322 15.8074 16.7185 16.3649 17.1787 17.0207C16.376 17.8473 15.4154 18.5043 14.354 18.9526C13.2926 19.4009 12.152 19.6314 10.9998 19.6306Z" fill="#607D8B"/>
</svg>
