<svg width="150" height="152" viewBox="0 0 150 152" fill="none" xmlns="http://www.w3.org/2000/svg">
<g filter="url(#filter0_ddd_5827_64741)">
<path d="M19.5 40.5C18.7044 40.5 17.9413 40.8161 17.3787 41.3787C16.8161 41.9413 16.5 42.7044 16.5 43.5C16.5 44.2956 16.8161 45.0587 17.3787 45.6213C17.9413 46.1839 18.7044 46.5 19.5 46.5C20.2956 46.5 21.0587 46.1839 21.6213 45.6213C22.1839 45.0587 22.5 44.2956 22.5 43.5C22.5 42.7044 22.1839 41.9413 21.6213 41.3787C21.0587 40.8161 20.2956 40.5 19.5 40.5Z" fill="#EE3E54"/>
<path d="M115.5 18C115.102 18 114.721 18.158 114.439 18.4393C114.158 18.7206 114 19.1022 114 19.5C114 19.8978 114.158 20.2794 114.439 20.5607C114.721 20.842 115.102 21 115.5 21C115.898 21 116.279 20.842 116.561 20.5607C116.842 20.2794 117 19.8978 117 19.5C117 19.1022 116.842 18.7206 116.561 18.4393C116.279 18.158 115.898 18 115.5 18Z" fill="#F1BC19"/>
<path d="M75 19.5C60.2805 19.5 46.1638 25.3473 35.7556 35.7556C25.3473 46.1638 19.5 60.2805 19.5 75C19.5 89.7195 25.3473 103.836 35.7556 114.244C46.1638 124.653 60.2805 130.5 75 130.5C89.7195 130.5 103.836 124.653 114.244 114.244C124.653 103.836 130.5 89.7195 130.5 75C130.5 60.2805 124.653 46.1638 114.244 35.7556C103.836 25.3473 89.7195 19.5 75 19.5Z" fill="#FCE0A2"/>
<path d="M124.5 16.5C122.909 16.5 121.383 17.1321 120.257 18.2574C119.132 19.3826 118.5 20.9087 118.5 22.5C118.5 24.0913 119.132 25.6174 120.257 26.7426C121.383 27.8679 122.909 28.5 124.5 28.5C126.091 28.5 127.617 27.8679 128.743 26.7426C129.868 25.6174 130.5 24.0913 130.5 22.5C130.5 20.9087 129.868 19.3826 128.743 18.2574C127.617 17.1321 126.091 16.5 124.5 16.5Z" fill="#F1BC19"/>
<path d="M130.5 33C129.704 33 128.941 33.3161 128.379 33.8787C127.816 34.4413 127.5 35.2044 127.5 36C127.5 36.7956 127.816 37.5587 128.379 38.1213C128.941 38.6839 129.704 39 130.5 39C131.296 39 132.059 38.6839 132.621 38.1213C133.184 37.5587 133.5 36.7956 133.5 36C133.5 35.2044 133.184 34.4413 132.621 33.8787C132.059 33.3161 131.296 33 130.5 33Z" fill="#EE3E54"/>
<path d="M121.5 111C120.704 111 119.941 111.316 119.379 111.879C118.816 112.441 118.5 113.204 118.5 114C118.5 114.796 118.816 115.559 119.379 116.121C119.941 116.684 120.704 117 121.5 117C122.296 117 123.059 116.684 123.621 116.121C124.184 115.559 124.5 114.796 124.5 114C124.5 113.204 124.184 112.441 123.621 111.879C123.059 111.316 122.296 111 121.5 111ZM22.5 88.5C20.9087 88.5 19.3826 89.1321 18.2574 90.2574C17.1321 91.3826 16.5 92.9087 16.5 94.5C16.5 96.0913 17.1321 97.6174 18.2574 98.7426C19.3826 99.8679 20.9087 100.5 22.5 100.5C24.0913 100.5 25.6174 99.8679 26.7426 98.7426C27.8679 97.6174 28.5 96.0913 28.5 94.5C28.5 92.9087 27.8679 91.3826 26.7426 90.2574C25.6174 89.1321 24.0913 88.5 22.5 88.5Z" fill="#FBCD59"/>
<path d="M37.5 127.5C36.7044 127.5 35.9413 127.816 35.3787 128.379C34.8161 128.941 34.5 129.704 34.5 130.5C34.5 131.296 34.8161 132.059 35.3787 132.621C35.9413 133.184 36.7044 133.5 37.5 133.5C38.2956 133.5 39.0587 133.184 39.6213 132.621C40.1839 132.059 40.5 131.296 40.5 130.5C40.5 129.704 40.1839 128.941 39.6213 128.379C39.0587 127.816 38.2956 127.5 37.5 127.5Z" fill="#EE3E54"/>
<path d="M27.75 76.5C26.7554 76.5 25.8016 76.8951 25.0983 77.5983C24.3951 78.3016 24 79.2554 24 80.25C24 81.2446 24.3951 82.1984 25.0983 82.9017C25.8016 83.6049 26.7554 84 27.75 84C28.7446 84 29.6984 83.6049 30.4017 82.9017C31.1049 82.1984 31.5 81.2446 31.5 80.25C31.5 79.2554 31.1049 78.3016 30.4017 77.5983C29.6984 76.8951 28.7446 76.5 27.75 76.5Z" fill="white"/>
<path d="M31.5 99C31.1022 99 30.7206 99.158 30.4393 99.4393C30.158 99.7206 30 100.102 30 100.5C30 100.898 30.158 101.279 30.4393 101.561C30.7206 101.842 31.1022 102 31.5 102C31.8978 102 32.2794 101.842 32.5607 101.561C32.842 101.279 33 100.898 33 100.5C33 100.102 32.842 99.7206 32.5607 99.4393C32.2794 99.158 31.8978 99 31.5 99Z" fill="#F1BC19"/>
<path d="M120 49.5C119.602 49.5 119.221 49.658 118.939 49.9393C118.658 50.2206 118.5 50.6022 118.5 51C118.5 51.3978 118.658 51.7794 118.939 52.0607C119.221 52.342 119.602 52.5 120 52.5C120.398 52.5 120.779 52.342 121.061 52.0607C121.342 51.7794 121.5 51.3978 121.5 51C121.5 50.6022 121.342 50.2206 121.061 49.9393C120.779 49.658 120.398 49.5 120 49.5Z" fill="white"/>
<path d="M56.8477 67.0488H61.4977V85.7988H56.8477V67.0488Z" fill="#78CDD4"/>
<path d="M56.25 85.5C55.8 85.5 55.5 85.2 55.5 84.75V68.25C55.5 67.8 55.8 67.5 56.25 67.5C56.7 67.5 57 67.8 57 68.25V84.75C57 85.2 56.7 85.5 56.25 85.5ZM62.25 85.5C61.8 85.5 61.5 85.2 61.5 84.75V68.25C61.5 67.8 61.8 67.5 62.25 67.5C62.7 67.5 63 67.8 63 68.25V84.75C63 85.2 62.7 85.5 62.25 85.5Z" fill="#472B29"/>
<path d="M67.7988 63.75L70.3924 58.1736L92.5619 68.4846L89.9683 74.061L67.7988 63.75Z" fill="#78CDD4"/>
<path d="M86.4026 72.9002C86.2526 72.9002 86.2526 72.9002 86.1026 72.9002L71.1026 66.0002C70.6526 65.8502 70.5026 65.4002 70.8026 64.9502C70.9526 64.5002 71.4026 64.3502 71.8526 64.6502L86.8526 71.5502C87.3026 71.7002 87.4526 72.1502 87.1526 72.6002C87.0026 72.7502 86.7026 72.9002 86.4026 72.9002Z" fill="#472B29"/>
<path d="M88.9479 67.5002C88.7979 67.5002 88.7979 67.5002 88.6479 67.5002L79.0479 63.0002C78.5979 62.8502 78.4479 62.4002 78.7479 61.9502C78.8979 61.5002 79.3479 61.3502 79.7979 61.6502L89.3979 66.1502C89.8479 66.3002 89.9979 66.7502 89.6979 67.2002C89.5479 67.3502 89.2479 67.5002 88.9479 67.5002Z" fill="#472B29"/>
<path d="M70.3652 86.7129L93.0788 76.1489L95.7356 81.8613L73.022 92.4253L70.3652 86.7129Z" fill="#78CDD4"/>
<path d="M78.7503 90.3003C78.4503 90.3003 78.1503 90.1503 78.0003 89.8503C77.8503 89.4003 78.0003 89.1003 78.3003 88.8003L88.5003 84.0003C88.9503 83.8503 89.2503 84.0003 89.5503 84.3003C89.7003 84.7503 89.5503 85.0503 89.2503 85.3503L79.0503 90.1503C78.9003 90.1503 78.7503 90.3003 78.7503 90.3003Z" fill="#472B29"/>
<path d="M71.4026 86.9979C71.1026 86.9979 70.8026 86.8479 70.6526 86.5479C70.5026 86.0979 70.6526 85.7979 70.9526 85.4979L85.9526 78.5979C86.4026 78.4479 86.7026 78.5979 87.0026 78.8979C87.3026 79.1979 87.0026 79.6479 86.7026 79.9479L71.7026 86.8479C71.7026 86.9979 71.5526 86.9979 71.4026 86.9979Z" fill="#472B29"/>
<path d="M99.7488 61.0488C97.8184 61.0488 95.9069 61.4291 94.1234 62.1678C92.3399 62.9065 90.7194 63.9893 89.3544 65.3544C87.9893 66.7194 86.9065 68.3399 86.1678 70.1234C85.4291 71.9069 85.0488 73.8184 85.0488 75.7488C85.0488 77.6793 85.4291 79.5908 86.1678 81.3743C86.9065 83.1578 87.9893 84.7783 89.3544 86.1433C90.7194 87.5083 92.3399 88.5911 94.1234 89.3299C95.9069 90.0686 97.8184 90.4488 99.7488 90.4488C101.679 90.4488 103.591 90.0686 105.374 89.3299C107.158 88.5911 108.778 87.5083 110.143 86.1433C111.508 84.7783 112.591 83.1578 113.33 81.3743C114.069 79.5908 114.449 77.6793 114.449 75.7488C114.449 73.8184 114.069 71.9069 113.33 70.1234C112.591 68.3399 111.508 66.7194 110.143 65.3544C108.778 63.9893 107.158 62.9065 105.374 62.1678C103.591 61.4291 101.679 61.0488 99.7488 61.0488Z" fill="#78CDD4"/>
<path d="M99.75 62.1C107.25 62.1 113.4 68.25 113.4 75.75C113.4 83.25 107.25 89.4 99.75 89.4C92.25 89.4 86.1 83.25 86.1 75.75C86.1 68.25 92.25 62.1 99.75 62.1ZM99.75 60C91.05 60 84 67.05 84 75.75C84 84.45 91.05 91.5 99.75 91.5C108.45 91.5 115.5 84.45 115.5 75.75C115.5 67.05 108.45 60 99.75 60Z" fill="#472B29"/>
<path d="M99.75 85.5C94.35 85.5 90 81.15 90 75.75C90 70.35 94.35 66 99.75 66C100.2 66 100.5 66.3 100.5 66.75C100.5 67.2 100.2 67.5 99.75 67.5C95.25 67.5 91.5 71.25 91.5 75.75C91.5 80.25 95.25 84 99.75 84C104.25 84 108 80.25 108 75.75C108 75.3 108.3 75 108.75 75C109.2 75 109.5 75.3 109.5 75.75C109.5 81.15 105.15 85.5 99.75 85.5ZM107.85 72.45C107.55 72.45 107.25 72.3 107.25 72C106.5 70.5 105.3 69.3 103.8 68.4C103.5 68.25 103.35 67.8 103.5 67.35C103.65 67.05 104.1 66.9 104.55 67.05C106.35 67.95 107.7 69.45 108.6 71.25C108.75 71.55 108.6 72 108.3 72.3C108 72.45 108 72.45 107.85 72.45Z" fill="#472B29"/>
<path d="M59.2488 41.5488C55.3501 41.5488 51.6111 43.0976 48.8544 45.8544C46.0976 48.6111 44.5488 52.3501 44.5488 56.2488C44.5488 60.1475 46.0976 63.8865 48.8544 66.6433C51.6111 69.4001 55.3501 70.9488 59.2488 70.9488C63.1475 70.9488 66.8865 69.4001 69.6433 66.6433C72.4001 63.8865 73.9488 60.1475 73.9488 56.2488C73.9488 52.3501 72.4001 48.6111 69.6433 45.8544C66.8865 43.0976 63.1475 41.5488 59.2488 41.5488Z" fill="#78CDD4"/>
<path d="M59.25 42.6C66.75 42.6 72.9 48.75 72.9 56.25C72.9 63.75 66.75 69.9 59.25 69.9C51.75 69.9 45.6 63.75 45.6 56.25C45.6 48.75 51.75 42.6 59.25 42.6ZM59.25 40.5C50.55 40.5 43.5 47.55 43.5 56.25C43.5 64.95 50.55 72 59.25 72C67.95 72 75 64.95 75 56.25C75 47.55 67.95 40.5 59.25 40.5Z" fill="#472B29"/>
<path d="M59.25 66C53.85 66 49.5 61.65 49.5 56.25C49.5 50.85 53.85 46.5 59.25 46.5C59.7 46.5 60 46.8 60 47.25C60 47.7 59.7 48 59.25 48C54.75 48 51 51.75 51 56.25C51 60.75 54.75 64.5 59.25 64.5C63.75 64.5 67.5 60.75 67.5 56.25C67.5 55.8 67.8 55.5 68.25 55.5C68.7 55.5 69 55.8 69 56.25C69 61.65 64.65 66 59.25 66ZM67.35 52.95C67.05 52.95 66.75 52.8 66.75 52.5C66 51 64.8 49.8 63.3 48.9C63 48.75 62.85 48.3 63 47.85C63.15 47.55 63.6 47.4 64.05 47.55C65.85 48.45 67.2 49.95 68.1 51.75C68.25 52.05 68.1 52.5 67.8 52.8C67.5 52.95 67.5 52.95 67.35 52.95Z" fill="#472B29"/>
<path d="M59.2488 82.0488C57.3184 82.0488 55.4069 82.4291 53.6234 83.1678C51.8399 83.9065 50.2194 84.9893 48.8544 86.3544C47.4893 87.7194 46.4065 89.3399 45.6678 91.1234C44.9291 92.9069 44.5488 94.8184 44.5488 96.7488C44.5488 98.6793 44.9291 100.591 45.6678 102.374C46.4065 104.158 47.4893 105.778 48.8544 107.143C50.2194 108.508 51.8399 109.591 53.6234 110.33C55.4069 111.069 57.3184 111.449 59.2488 111.449C61.1793 111.449 63.0908 111.069 64.8743 110.33C66.6578 109.591 68.2783 108.508 69.6433 107.143C71.0083 105.778 72.0911 104.158 72.8299 102.374C73.5686 100.591 73.9488 98.6793 73.9488 96.7488C73.9488 94.8184 73.5686 92.9069 72.8299 91.1234C72.0911 89.3399 71.0083 87.7194 69.6433 86.3544C68.2783 84.9893 66.6578 83.9065 64.8743 83.1678C63.0908 82.4291 61.1793 82.0488 59.2488 82.0488Z" fill="#78CDD4"/>
<path d="M59.25 83.1C66.75 83.1 72.9 89.25 72.9 96.75C72.9 104.25 66.75 110.4 59.25 110.4C51.75 110.4 45.6 104.25 45.6 96.75C45.6 89.25 51.75 83.1 59.25 83.1ZM59.25 81C50.55 81 43.5 88.05 43.5 96.75C43.5 105.45 50.55 112.5 59.25 112.5C67.95 112.5 75 105.45 75 96.75C75 88.05 67.95 81 59.25 81Z" fill="#472B29"/>
<path d="M59.25 106.5C53.85 106.5 49.5 102.15 49.5 96.75C49.5 91.35 53.85 87 59.25 87C59.7 87 60 87.3 60 87.75C60 88.2 59.7 88.5 59.25 88.5C54.75 88.5 51 92.25 51 96.75C51 101.25 54.75 105 59.25 105C63.75 105 67.5 101.25 67.5 96.75C67.5 96.3 67.8 96 68.25 96C68.7 96 69 96.3 69 96.75C69 102.15 64.65 106.5 59.25 106.5ZM67.35 93.45C67.05 93.45 66.75 93.3 66.75 93C66 91.5 64.8 90.3 63.3 89.4C63 89.25 62.85 88.8 63 88.35C63.15 87.9 63.6 87.9 64.05 88.05C65.85 88.95 67.2 90.45 68.1 92.25C68.25 92.55 68.1 93 67.8 93.3C67.5 93.45 67.5 93.45 67.35 93.45Z" fill="#472B29"/>
</g>
<defs>
<filter id="filter0_ddd_5827_64741" x="-16" y="-14" width="182" height="182" filterUnits="userSpaceOnUse" color-interpolation-filters="sRGB">
<feFlood flood-opacity="0" result="BackgroundImageFix"/>
<feColorMatrix in="SourceAlpha" type="matrix" values="0 0 0 0 0 0 0 0 0 0 0 0 0 0 0 0 0 0 127 0" result="hardAlpha"/>
<feMorphology radius="1" operator="dilate" in="SourceAlpha" result="effect1_dropShadow_5827_64741"/>
<feOffset dy="2"/>
<feGaussianBlur stdDeviation="7.5"/>
<feColorMatrix type="matrix" values="0 0 0 0 0.564706 0 0 0 0 0.643137 0 0 0 0 0.682353 0 0 0 0.11 0"/>
<feBlend mode="normal" in2="BackgroundImageFix" result="effect1_dropShadow_5827_64741"/>
<feColorMatrix in="SourceAlpha" type="matrix" values="0 0 0 0 0 0 0 0 0 0 0 0 0 0 0 0 0 0 127 0" result="hardAlpha"/>
<feMorphology radius="1" operator="dilate" in="SourceAlpha" result="effect2_dropShadow_5827_64741"/>
<feOffset dy="7"/>
<feGaussianBlur stdDeviation="5"/>
<feColorMatrix type="matrix" values="0 0 0 0 0.564706 0 0 0 0 0.643137 0 0 0 0 0.682353 0 0 0 0.14 0"/>
<feBlend mode="normal" in2="effect1_dropShadow_5827_64741" result="effect2_dropShadow_5827_64741"/>
<feColorMatrix in="SourceAlpha" type="matrix" values="0 0 0 0 0 0 0 0 0 0 0 0 0 0 0 0 0 0 127 0" result="hardAlpha"/>
<feMorphology radius="2" operator="erode" in="SourceAlpha" result="effect3_dropShadow_5827_64741"/>
<feOffset dy="4"/>
<feGaussianBlur stdDeviation="2.5"/>
<feColorMatrix type="matrix" values="0 0 0 0 0.564706 0 0 0 0 0.643137 0 0 0 0 0.682353 0 0 0 0.25 0"/>
<feBlend mode="normal" in2="effect2_dropShadow_5827_64741" result="effect3_dropShadow_5827_64741"/>
<feBlend mode="normal" in="SourceGraphic" in2="effect3_dropShadow_5827_64741" result="shape"/>
</filter>
</defs>
</svg>
